<svg width="128" height="128" viewBox="0 0 128 128" xmlns="http://www.w3.org/2000/svg">
  <defs>
    <linearGradient id="mist" x1="0" y1="0" x2="1" y2="0">
      <stop offset="0" stop-color="#5eadf2" stop-opacity="0.9"/>
      <stop offset="1" stop-color="#5eadf2" stop-opacity="0"/>
    </linearGradient>
  </defs>
  <rect width="128" height="128" rx="28" fill="#171d26"/>
  <!-- curly braces: the spec -->
  <path d="M46 34c-8 0-11 4-11 11v8c0 5-2 8-8 9v4c6 1 8 4 8 9v8c0 7 3 11 11 11"
        fill="none" stroke="#5eadf2" stroke-width="7" stroke-linecap="round"/>
  <path d="M82 34c8 0 11 4 11 11v8c0 5 2 8 8 9v4c-6 1-8 4-8 9v8c0 7-3 11-11 11"
        fill="none" stroke="#5eadf2" stroke-width="7" stroke-linecap="round"/>
  <!-- mist clearing: three fading lines -->
  <rect x="52" y="50" width="26" height="6" rx="3" fill="url(#mist)"/>
  <rect x="52" y="62" width="20" height="6" rx="3" fill="url(#mist)"/>
  <rect x="52" y="74" width="14" height="6" rx="3" fill="url(#mist)"/>
</svg>
